#!OML:ASF X:\für Bonn\!DataBase\2005_08_12_Daniel\c3d\Daniel.ASF
:FULLY-SPECIFIED
:DEGREES
110
root 7.56867 10.6896 -3.32394 -1091.91 -11.0925 -19.0457
lowerback 82.2781 0.472419 -2.49014
upperback 10.9575 -3.76232 -4.84485
thorax -7.97639 -1.64695 -3.1971
lowerneck 1.8868 11.7963 -0.216943
upperneck 2.86988 15.6541 -5.92347
head 1.07636 7.71221 -1.69088
rclavicle -4.77083e-014 -5.725e-014
rhumerus -24.9472 11.6055 -81.454
rradius 41.651
rwrist 9.29755
rhand -16.7527 -342.14
rfingers 7.12502
rthumb 9.47392 -371.907
lclavicle -4.77083e-014 -5.725e-014
lhumerus -700.545 24.343 -665.173
lradius 22.8141
lwrist -38.8767
lhand -37.6371 345.536
lfingers 7.12502
lthumb -10.6892 375.244
rfemur 294.123 -23.7494 407.579
rtibia 106.541
rfoot -17.3734 20.2156
rtoes 17.8285
lfemur -51.0291 1.73125 1.67569
ltibia 130.59
lfoot 16.5004 -39.458
ltoes 18.0021
111
root 7.6584 10.5475 -3.2987 -1091.93 -11.8011 -19.5855
lowerback 82.5404 0.555949 -2.49759
upperback 10.9426 -3.7765 -4.92544
thorax -7.96473 -1.66751 -3.29106
lowerneck 1.97666 11.763 -0.235457
upperneck 2.61802 15.5974 -5.88433
head 0.974749 7.69373 -1.69199
rclavicle -1.59028e-014 -6.04305e-014
rhumerus -25.0062 11.6983 -81.2588
rradius 41.5219
rwrist 9.37249
rhand -16.5889 -342.017
rfingers 7.12502
rthumb 9.63197 -371.777
lclavicle -1.59028e-014 -6.04305e-014
lhumerus -700.086 25.9714 -665.1
lradius 22.3312
lwrist -39.126
lhand -38.2733 345.326
lfingers 7.12502
lthumb -11.3029 375.001
rfemur 293.422 -24.0485 407.902
rtibia 107.636
rfoot -17.0199 20.8425
rtoes 18.3296
lfemur -51.2854 2.90004 2.19712
ltibia 131.719
lfoot 17.2199 -39.7458
ltoes 17.9376
112
root 7.74952 10.4085 -3.27173 -1091.91 -12.5108 -20.152
lowerback 82.7316 0.599437 -2.46143
upperback 10.9632 -3.796 -5.03015
thorax -7.92616 -1.68802 -3.42574
lowerneck 2.04087 11.7231 -0.36206
upperneck 2.36434 15.5296 -5.72616
head 0.857513 7.66903 -1.63998
rclavicle -2.54444e-014 1.59028e-015
rhumerus -25.0101 11.6929 -81.0873
rradius 41.344
rwrist 9.62085
rhand -16.4221 -341.898
rfingers 7.12502
rthumb 9.79292 -371.65
lclavicle -2.54444e-014 1.59028e-015
lhumerus -699.495 27.7607 -664.859
lradius 21.7922
lwrist -39.3778
lhand -38.8069 345.011
lfingers 7.12502
lthumb -11.8174 374.657
rfemur 292.727 -24.344 408.24
rtibia 108.687
rfoot -16.6558 21.4518
rtoes 18.8992
lfemur -51.5377 4.23304 2.82852
ltibia 132.809
lfoot 18.1986 -40.0894
ltoes 18.082
113
root 7.84126 10.2739 -3.24107 -1091.9 -13.2181 -20.7407
lowerback 82.971 0.650827 -2.42747
upperback 10.952 -3.81021 -5.11367
thorax -7.91561 -1.70844 -3.53793
lowerneck 2.01952 11.6854 -0.504672
upperneck 2.22419 15.4714 -5.54081
head 0.787374 7.64405 -1.56784
rclavicle 2.22639e-014 3.49861e-014
rhumerus -25.0554 11.8032 -80.9058
rradius 41.19
rwrist 9.90202
rhand -16.3493 -341.832
rfingers 7.12502
rthumb 9.86319 -371.581
lclavicle 2.22639e-014 3.49861e-014
lhumerus -698.881 29.6659 -664.478
lradius 21.2567
lwrist -39.6384
lhand -39.2108 344.701
lfingers 7.12502
lthumb -12.207 374.324
rfemur 292.123 -24.7004 408.553
rtibia 109.689
rfoot -16.29 22.0869
rtoes 19.4001
lfemur -51.689 5.62757 3.52145
ltibia 133.848
lfoot 19.2045 -40.5129
ltoes 18.1805
114
root 7.93225 10.1425 -3.20598 -1091.93 -13.9054 -21.3323
lowerback 83.222 0.700882 -2.38505
upperback 10.9423 -3.81591 -5.18076
thorax -7.89921 -1.72705 -3.63782
lowerneck 1.95041 11.6462 -0.645374
upperneck 2.10458 15.4146 -5.36302
head 0.732824 7.61874 -1.49459
rclavicle -1.90833e-014 -1.11319e-014
rhumerus -25.0785 11.8177 -80.7072
rradius 41.0267
rwrist 10.313
rhand -16.2361 -341.729
rfingers 7.12502
rthumb 9.97242 -371.472
lclavicle -1.90833e-014 -1.11319e-014
lhumerus -698.239 31.5842 -663.99
lradius 20.7444
lwrist -39.808
lhand -39.5129 344.244
lfingers 7.12502
lthumb -12.4982 373.85
rfemur 291.58 -25.1569 408.829
rtibia 110.656
rfoot -15.8932 22.7177
rtoes 19.8355
lfemur -51.7646 7.0959 4.28808
ltibia 134.844
lfoot 20.2409 -41.0142
ltoes 18.2878
115
root 8.0258 10.0106 -3.16816 -1091.94 -14.5854 -21.9655
lowerback 83.4753 0.689912 -2.275
upperback 10.942 -3.83251 -5.273
thorax -7.87821 -1.74618 -3.78837
lowerneck 1.70433 11.5875 -0.775657
upperneck 2.0851 15.3435 -5.15389
head 0.736572 7.58205 -1.39872
rclavicle 1.59028e-014 -1.11319e-014
rhumerus -25.0901 11.8704 -80.5331
rradius 40.868
rwrist 10.7284
rhand -16.2246 -341.654
rfingers 7.12502
rthumb 9.98345 -371.397
lclavicle 1.59028e-014 -1.11319e-014
lhumerus -697.427 33.6736 -663.288
lradius 20.1671
lwrist -40.2899
lhand -39.8582 343.701
lfingers 7.12502
lthumb -12.8311 373.287
rfemur 291.056 -25.6667 409.128
rtibia 111.605
rfoot -15.5683 23.2825
rtoes 20.1144
lfemur -51.7952 8.7582 5.19524
ltibia 135.829
lfoot 21.2802 -41.7041
ltoes 18.2371
116
root 8.12084 9.87842 -3.12892 -1091.9 -15.3029 -22.589
lowerback 83.6606 0.708872 -2.18796
upperback 10.9398 -3.83576 -5.36503
thorax -7.86752 -1.76079 -3.93344
lowerneck 1.40025 11.528 -0.942836
upperneck 2.13945 15.2751 -4.91896
head 0.768058 7.5437 -1.28396
rclavicle 0 -8.42847e-014
rhumerus -25.1333 12.0265 -80.3768
rradius 40.7701
rwrist 11.1503
rhand -16.292 -341.713
rfingers 7.12502
rthumb 9.91845 -371.459
lclavicle 0 -8.42847e-014
lhumerus -696.557 35.9016 -662.406
lradius 19.6264
lwrist -41.0583
lhand -40.205 343.184
lfingers 7.12502
lthumb -13.1654 372.748
rfemur 290.488 -26.1241 409.43
rtibia 112.538
rfoot -15.1796 23.8223
rtoes 20.4547
lfemur -51.8336 10.7476 6.2667
ltibia 136.828
lfoot 22.3355 -42.582
ltoes 18.075
117
root 8.21942 9.74419 -3.08901 -1091.87 -16.075 -23.2153
lowerback 83.8429 0.733006 -2.08516
upperback 10.9403 -3.82713 -5.47188
thorax -7.85547 -1.76927 -4.10723
lowerneck 1.12073 11.4548 -1.15443
upperneck 2.16925 15.1869 -4.68648
head 0.784458 7.49643 -1.16684
rclavicle 4.77083e-014 5.08889e-014
rhumerus -25.1779 12.2093 -80.23
rradius 40.6701
rwrist 11.5682
rhand -16.4086 -341.777
rfingers 7.12502
rthumb 9.80595 -371.529
lclavicle 4.77083e-014 5.08889e-014
lhumerus -695.617 38.1071 -661.416
lradius 19.0526
lwrist -42.0938
lhand -40.7664 342.812
lfingers 7.12502
lthumb -13.7065 372.34
rfemur 289.918 -26.6039 409.737
rtibia 113.475
rfoot -14.7946 24.2944
rtoes 20.7678
lfemur -51.7469 13.0797 7.52381
ltibia 137.811
lfoot 23.4149 -43.6393
ltoes 17.869
118
root 8.31872 9.60962 -3.0484 -1091.8 -16.86 -23.8682
lowerback 83.9999 0.775225 -1.97562
upperback 10.9249 -3.78754 -5.54371
thorax -7.86016 -1.76911 -4.25338
lowerneck 0.862016 11.3705 -1.46051
upperneck 2.19612 15.0824 -4.43406
head 0.787703 7.4408 -1.03263
rclavicle 3.81667e-014 -3.18055e-015
rhumerus -25.223 12.4146 -80.0583
rradius 40.5594
rwrist 12.0071
rhand -16.5692 -341.862
rfingers 7.12502
rthumb 9.65102 -371.621
lclavicle 3.81667e-014 -3.18055e-015
lhumerus -694.709 40.3186 -660.299
lradius 18.5379
lwrist -43.4625
lhand -41.5785 342.392
lfingers 7.12502
lthumb -14.4891 371.866
rfemur 289.343 -27.0754 410.072
rtibia 114.385
rfoot -14.4275 24.7229
rtoes 20.9447
lfemur -51.5466 15.7383 9.07049
ltibia 138.781
lfoot 24.5005 -45.0505
ltoes 17.5058
119
root 8.42035 9.47366 -3.00622 -1091.74 -17.6529 -24.5278
lowerback 84.1641 0.798033 -1.85788
upperback 10.9068 -3.76498 -5.63204
thorax -7.87027 -1.77416 -4.41541
lowerneck 0.65409 11.2844 -1.78356
upperneck 2.1919 14.9734 -4.19708
head 0.773637 7.3842 -0.90559
rclavicle 6.36111e-015 -1.74931e-014
rhumerus -25.2844 12.6329 -79.9437
rradius 40.4566
rwrist 12.3743
rhand -16.772 -341.979
rfingers 7.12502
rthumb 9.45534 -371.747
lclavicle 6.36111e-015 -1.74931e-014
lhumerus -693.714 42.5941 -659.057
lradius 17.9558
lwrist -45.2301
lhand -42.7464 342.055
lfingers 7.12502
lthumb -15.6141 371.445
rfemur 288.778 -27.5968 410.411
rtibia 115.295
rfoot -14.0862 25.1114
rtoes 21.1265
lfemur -51.6428 16.2009 9.31582
ltibia 139.742
lfoot 24.7809 -45.1334
ltoes 17.1828
120
root 8.52231 9.33578 -2.9629 -1091.65 -18.4746 -25.1893
lowerback 84.2961 0.846596 -1.73352
upperback 10.8949 -3.71036 -5.71741
thorax -7.87511 -1.76651 -4.58904
lowerneck 0.401771 11.1789 -2.12205
upperneck 2.22451 14.843 -3.95113
head 0.77682 7.31567 -0.770581
rclavicle -9.54166e-015 1.74931e-014
rhumerus -25.3586 12.8082 -79.8176
rradius 40.3962
rwrist 12.7409
rhand -16.9184 -342.075
rfingers 7.12502
rthumb 9.31412 -371.849
lclavicle -9.54166e-015 1.74931e-014
lhumerus -692.713 44.7511 -657.745
lradius 17.4029
lwrist -47.1908
lhand -44.2415 341.889
lfingers 7.12502
lthumb -17.0537 371.16
rfemur 288.197 -28.0956 410.781
rtibia 116.204
rfoot -13.8057 25.4403
rtoes 21.2029
lfemur -51.7115 16.7071 9.55368
ltibia 140.698
lfoot 25.0441 -45.1968
ltoes 16.9052
